<?xml version="1.0" encoding="UTF-8" standalone="no" ?>
<!DOCTYPE svg PUBLIC "-//W3C//DTD SVG 1.1//EN" "http://www.w3.org/Graphics/SVG/1.1/DTD/svg11.dtd">
<svg xmlns="http://www.w3.org/2000/svg" xmlns:xlink="http://www.w3.org/1999/xlink" version="1.1" width="400" height="73" viewBox="0 0 400 73" xml:space="preserve">
<desc>Created with Fabric.js 4.6.0</desc>
<defs>
</defs>
<g transform="matrix(1 0 0 1 198.77 37.95)" id="LbcizsjsrCCdoAMgxNLkG"  >
<path style="stroke: none; stroke-width: 1; stroke-dasharray: none; stroke-linecap: butt; stroke-dashoffset: 0; stroke-linejoin: miter; stroke-miterlimit: 4; fill: rgb(9,9,9); fill-rule: evenodd; opacity: 1;" vector-effect="non-scaling-stroke"  transform=" translate(-198, -37.18)" d="M 170.077 21.042 C 170.033 21.156 170.017 28.375 170.04 37.083 L 170.083 52.917 L 171.653 52.965 C 172.796 53 173.259 52.955 173.359 52.798 C 173.434 52.68 173.496 45.748 173.497 37.394 L 173.5 22.205 L 173.125 21.968 C 171.881 21.183 170.216 20.677 170.077 21.042 M 198.27 21.496 C 196.552 22.33 196.672 21.863 196.669 27.708 C 196.668 30.527 196.624 32.833 196.572 32.833 C 196.519 32.833 196.003 32.496 195.425 32.083 C 190.09 28.276 183.699 30.687 181.164 37.463 C 178.81 43.753 182.011 51.292 187.833 53.174 C 188.8 53.487 191.864 53.496 192.667 53.19 C 193.807 52.754 195.042 52.076 195.668 51.542 C 196.521 50.814 196.666 50.851 196.669 51.792 C 196.673 52.989 196.722 53.02 198.514 52.965 L 200.083 52.917 L 200.167 37.083 C 200.213 28.375 200.223 21.156 200.191 21.042 C 200.097 20.713 199.68 20.812 198.27 21.496 M 239.756 20.99 C 239.616 21.217 239.424 52.007 239.559 52.547 L 239.673 53 L 241.31 53 L 242.946 53 L 243.057 48.473 C 243.258 40.173 243.193 22.598 242.958 22.289 C 242.606 21.825 239.915 20.733 239.756 20.99 M 297.425 21.208 C 297.311 21.577 297.152 52.434 297.262 52.722 C 297.417 53.125 300.578 53.137 300.732 52.736 C 300.788 52.591 300.833 50.723 300.833 48.585 L 300.833 44.696 L 303.012 42.64 C 305.63 40.168 305.477 40.218 306.127 41.619 C 306.994 43.489 307.758 45.178 308.334 46.5 C 309.007 48.043 309.485 49.095 310.512 51.292 L 311.312 53 L 313.156 53 C 315.221 53 315.178 53.036 314.606 51.781 C 313.758 49.923 313.506 49.361 312.833 47.833 C 312.45 46.962 312.002 45.95 311.837 45.583 C 311.672 45.217 310.854 43.397 310.019 41.54 C 309.183 39.683 308.5 38.025 308.5 37.855 C 308.5 37.66 309.833 36.394 312.125 34.413 C 314.119 32.69 315.75 31.161 315.75 31.015 C 315.75 30.789 315.433 30.743 313.565 30.704 L 311.381 30.657 L 310.632 31.287 C 309.952 31.859 308.099 33.486 302.925 38.055 C 301.921 38.941 301.039 39.667 300.966 39.667 C 300.893 39.667 300.833 35.816 300.833 31.109 C 300.833 21.301 301.029 22.352 299.048 21.509 C 297.718 20.943 297.519 20.906 297.425 21.208 M 80.27 21.968 C 80.174 22.122 80.299 22.662 80.914 24.75 C 81.157 25.575 81.398 26.4 81.449 26.583 C 81.644 27.282 83.185 32.636 83.511 33.75 C 83.879 35.005 84.122 35.844 84.575 37.417 C 84.734 37.967 85.006 38.904 85.18 39.5 C 85.354 40.096 85.873 41.896 86.333 43.5 C 86.793 45.104 87.312 46.904 87.486 47.5 C 87.808 48.598 88.185 49.904 88.618 51.417 C 89.016 52.805 88.914 52.745 90.962 52.797 L 92.805 52.844 L 93.212 51.547 C 93.436 50.834 93.75 49.8 93.908 49.25 C 94.361 47.681 94.786 46.228 95.348 44.333 C 95.633 43.371 95.922 42.358 95.991 42.083 C 96.059 41.808 96.276 41.058 96.473 40.417 C 96.67 39.775 97.397 37.3 98.09 34.917 C 98.783 32.533 99.502 30.068 99.688 29.438 C 100.154 27.86 100.295 28.106 101.496 32.583 C 101.664 33.209 103.054 38.046 103.483 39.5 C 103.777 40.493 103.999 41.259 104.595 43.333 C 104.714 43.746 104.956 44.571 105.133 45.167 C 105.31 45.762 105.851 47.637 106.337 49.333 C 107.436 53.173 107.156 52.854 109.375 52.797 L 111.201 52.75 L 111.412 52.083 C 111.528 51.717 111.751 50.967 111.908 50.417 C 112.065 49.867 112.255 49.229 112.329 49 C 112.404 48.771 112.616 48.058 112.801 47.417 C 112.986 46.775 113.266 45.8 113.425 45.25 C 113.583 44.7 113.81 43.913 113.929 43.5 C 114.047 43.087 114.289 42.262 114.465 41.667 C 114.642 41.071 114.915 40.133 115.073 39.583 C 115.231 39.033 115.42 38.396 115.494 38.167 C 115.568 37.938 115.709 37.45 115.809 37.083 C 115.908 36.717 116.179 35.779 116.411 35 C 118.086 29.378 120 22.627 120 22.342 C 120 22.019 119.904 22 118.264 22 L 116.528 22 L 116.166 23.208 C 115.585 25.153 115.269 26.236 113.333 32.917 C 112.324 36.4 111.356 39.737 111.181 40.333 C 111.006 40.929 110.736 41.867 110.581 42.417 C 110.426 42.967 110.238 43.604 110.163 43.833 C 110.088 44.063 109.896 44.7 109.737 45.25 C 109.291 46.793 109.201 46.765 108.686 44.917 C 108.413 43.938 106.881 38.591 106.514 37.333 C 105.839 35.026 105.633 34.313 104.729 31.167 C 104.216 29.379 103.737 27.692 103.665 27.417 C 102.2 21.872 102.176 21.832 100.26 21.836 C 98.08 21.839 98.226 21.69 97.331 24.833 C 97.107 25.621 94.885 33.351 94.552 34.5 C 93.95 36.581 93.838 36.968 93.511 38.083 C 93.323 38.725 92.794 40.563 92.335 42.167 C 91.217 46.07 91.133 46.333 90.994 46.333 C 90.815 46.333 90.65 45.824 89.244 40.917 C 88.535 38.442 87.821 35.967 87.658 35.417 C 87.495 34.867 87.232 33.967 87.074 33.417 C 86.915 32.867 86.642 31.929 86.465 31.333 C 86.289 30.738 86.047 29.912 85.929 29.5 C 84.004 22.806 83.849 22.303 83.643 22.055 C 83.438 21.808 80.417 21.73 80.27 21.968 M 222 22.19 C 209.112 24.301 204.357 39.725 213.779 48.858 C 219.347 54.256 229.317 54.375 234.898 49.112 C 235.683 48.371 235.685 48.376 234.387 47.097 C 233.057 45.787 233.241 45.807 231.979 46.824 C 224.076 53.193 212.419 47.686 212.417 37.583 C 212.415 27.214 224.666 21.676 232.317 28.589 C 233.142 29.334 233.275 29.294 234.564 27.902 C 235.733 26.641 235.704 26.52 233.945 25.264 C 230.228 22.611 226.026 21.53 222 22.19 M 157.164 30.339 C 156.841 30.416 156.207 30.637 155.754 30.831 L 154.931 31.184 L 154.668 30.835 C 154.429 30.518 154.264 30.491 152.828 30.535 L 151.25 30.583 L 151.25 41.75 L 151.25 52.917 L 152.917 52.917 L 154.583 52.917 L 154.667 44.667 C 154.732 38.223 154.799 36.331 154.972 36.027 C 156.958 32.541 161.64 33.119 162.519 36.958 L 162.72 37.833 L 164.36 37.833 L 166 37.833 L 166 36.809 C 166 32.867 161.229 29.374 157.164 30.339 M 280.841 30.765 C 275.679 32.523 272.479 39.101 273.904 45.029 C 276.215 54.649 287.531 56.611 291.727 48.119 C 292.561 46.431 292.537 46.366 290.832 45.729 C 289.189 45.116 289.276 45.093 288.71 46.289 C 285.765 52.508 278.201 50.668 277.16 43.481 C 275.986 35.375 284.247 30.372 288.276 36.749 C 288.846 37.652 288.758 37.646 290.368 36.89 C 291.877 36.182 291.881 36.165 290.986 34.747 C 288.736 31.185 284.495 29.52 280.841 30.765 M 192.271 34.176 C 197.106 36.248 197.946 45.184 193.639 48.713 C 188.018 53.319 181.389 45.06 184.824 37.731 C 186.41 34.345 189.37 32.932 192.271 34.176" stroke-linecap="round" />
</g>
<g transform="matrix(1 0 0 1 200.77 37.27)" id="JXvdEUi0-ZgTca-bIJeFe"  >
<path style="stroke: none; stroke-width: 1; stroke-dasharray: none; stroke-linecap: butt; stroke-dashoffset: 0; stroke-linejoin: miter; stroke-miterlimit: 4; fill: rgb(255,255,255); fill-rule: evenodd; opacity: 1;" vector-effect="non-scaling-stroke"  transform=" translate(-200, -36.5)" d="M 0 36.5 L 0 73 L 200 73 L 400 73 L 400 36.5 L 400 0 L 200 0 L 0 0 L 0 36.5 M 172.154 21.28 C 172.834 21.593 173.478 21.967 173.584 22.112 C 173.836 22.458 173.715 52.641 173.46 52.958 C 173.235 53.239 170.312 53.246 170.033 52.967 C 169.743 52.676 169.743 20.99 170.034 20.7 C 170.272 20.461 170.524 20.53 172.154 21.28 M 200.292 36.893 L 200.25 53.083 L 198.75 53.132 C 196.548 53.204 196.5 53.182 196.5 52.075 L 196.5 51.156 L 195.625 51.799 C 190.62 55.481 184.451 53.647 181.548 47.616 C 180.932 46.335 180.804 45.975 180.347 44.231 C 180.119 43.362 180.114 40.462 180.339 39.583 C 181.244 36.051 182.765 33.496 184.891 31.938 C 186.023 31.109 186.513 30.839 187.815 30.328 C 188.563 30.035 191.762 30.033 192.518 30.325 C 193.767 30.808 195.218 31.595 195.841 32.129 L 196.5 32.693 L 196.505 27.555 C 196.511 22.514 196.576 21.833 197.06 21.833 C 197.118 21.833 197.774 21.539 198.517 21.178 C 199.259 20.818 199.972 20.564 200.101 20.613 C 200.3 20.69 200.329 23.12 200.292 36.893 M 241.884 21.396 L 243.167 21.981 L 243.167 37.574 L 243.167 53.167 L 241.351 53.167 C 239.849 53.167 239.518 53.121 239.434 52.903 C 239.218 52.338 239.322 21.078 239.542 20.856 C 239.819 20.574 240.347 20.696 241.884 21.396 M 298.917 21.167 C 299.517 21.442 300.067 21.667 300.139 21.667 C 300.92 21.667 300.911 21.572 301 30.755 L 301.083 39.37 L 302.167 38.413 C 302.762 37.887 303.55 37.182 303.917 36.847 C 304.283 36.512 306.06 34.947 307.866 33.369 L 311.148 30.5 L 313.574 30.5 L 316 30.5 L 316 30.963 C 316 31.239 315.849 31.553 315.625 31.74 C 314.314 32.838 312.712 34.217 311.935 34.917 C 311.833 35.008 311.262 35.496 310.667 36 C 310.071 36.504 309.365 37.116 309.098 37.359 L 308.612 37.802 L 308.991 38.693 C 309.447 39.763 309.855 40.676 310.605 42.304 C 310.914 42.975 311.167 43.554 311.167 43.591 C 311.167 43.628 311.382 44.129 311.645 44.704 C 311.907 45.279 312.292 46.125 312.5 46.583 C 312.708 47.042 313.093 47.887 313.355 48.463 C 313.618 49.038 313.833 49.54 313.833 49.578 C 313.833 49.616 314.137 50.301 314.508 51.101 C 315.491 53.219 315.48 53.24 313.27 53.298 C 311.478 53.344 310.833 53.172 310.833 52.645 C 310.833 52.57 310.618 52.038 310.355 51.463 C 310.093 50.887 309.708 50.042 309.501 49.583 C 309.293 49.125 308.871 48.201 308.562 47.529 C 308.253 46.858 308 46.284 308 46.254 C 308 46.224 307.71 45.574 307.355 44.808 C 305.915 41.699 305.667 41.136 305.667 40.976 C 305.667 40.589 305.08 41.026 303.098 42.89 L 301 44.863 L 301 48.776 C 301 51.154 300.932 52.815 300.827 53.011 C 300.564 53.504 297.433 53.498 297.168 53.003 C 296.957 52.608 297.006 21.204 297.218 20.875 C 297.419 20.565 297.713 20.615 298.917 21.167 M 83.903 22.042 C 84.038 22.248 84.222 22.717 84.312 23.083 C 84.403 23.45 84.676 24.425 84.919 25.25 C 85.162 26.075 85.425 26.975 85.502 27.25 C 85.58 27.525 85.766 28.162 85.917 28.667 C 86.067 29.171 86.26 29.827 86.345 30.125 C 86.43 30.423 86.57 30.91 86.655 31.208 C 86.74 31.506 86.933 32.162 87.083 32.667 C 87.234 33.171 87.42 33.808 87.497 34.083 C 87.574 34.358 87.765 35.033 87.92 35.583 C 88.075 36.133 88.262 36.808 88.334 37.083 C 88.406 37.358 88.625 38.108 88.819 38.75 C 89.014 39.392 89.246 40.179 89.335 40.5 C 89.584 41.401 90.016 42.871 90.168 43.333 C 90.243 43.563 90.438 44.219 90.601 44.792 C 90.933 45.962 91.091 46.084 91.247 45.292 C 91.306 44.994 91.417 44.563 91.493 44.333 C 91.57 44.104 91.759 43.467 91.913 42.917 C 92.067 42.367 92.254 41.729 92.327 41.5 C 92.401 41.271 92.543 40.783 92.643 40.417 C 93.206 38.348 93.388 37.717 93.507 37.417 C 93.579 37.233 93.801 36.483 93.999 35.75 C 94.468 34.013 94.556 33.701 95.077 31.917 C 95.318 31.092 95.704 29.742 95.935 28.917 C 96.496 26.909 96.568 26.657 97.081 24.917 C 97.324 24.092 97.581 23.19 97.652 22.913 C 97.969 21.675 97.986 21.666 100.048 21.669 C 101.076 21.671 101.996 21.727 102.093 21.794 C 102.278 21.922 102.514 22.656 103.742 26.917 C 103.9 27.467 104.182 28.442 104.367 29.083 C 104.713 30.281 104.986 31.246 105.311 32.417 C 105.413 32.783 105.605 33.458 105.738 33.917 C 106.558 36.735 106.925 38.02 107.332 39.5 C 107.446 39.912 107.598 40.438 107.671 40.667 C 107.837 41.192 108.28 42.71 108.522 43.583 C 108.624 43.95 108.834 44.657 108.988 45.153 L 109.269 46.057 L 109.644 44.82 C 110.018 43.586 110.198 42.974 110.741 41.083 C 110.899 40.533 111.161 39.633 111.324 39.083 C 111.486 38.533 111.749 37.633 111.906 37.083 C 112.064 36.533 112.254 35.896 112.327 35.667 C 112.401 35.438 112.543 34.95 112.642 34.583 C 112.741 34.217 113.021 33.242 113.264 32.417 C 113.678 31.008 113.86 30.371 114.311 28.75 C 114.472 28.171 115.007 26.359 115.492 24.75 C 115.575 24.475 115.799 23.714 115.99 23.059 C 116.395 21.668 116.398 21.667 118.333 21.667 C 120.599 21.667 120.581 21.642 119.914 23.755 C 119.684 24.485 119.425 25.346 119.338 25.667 C 119.251 25.988 119.001 26.85 118.782 27.583 C 118.563 28.317 118.249 29.404 118.085 30 C 117.921 30.596 117.694 31.383 117.581 31.75 C 117.468 32.117 117.208 33.017 117.004 33.75 C 116.8 34.483 116.571 35.233 116.497 35.417 C 116.422 35.6 116.316 35.938 116.26 36.167 C 116.111 36.777 115.76 38.021 115.178 40 C 114.552 42.125 114.125 43.589 113.742 44.917 C 113.583 45.467 113.273 46.517 113.053 47.25 C 112.833 47.983 112.573 48.883 112.474 49.25 C 112.375 49.617 112.234 50.104 112.161 50.333 C 112.087 50.563 111.896 51.2 111.736 51.75 C 111.315 53.199 111.369 53.167 109.355 53.164 C 107.258 53.161 107.199 53.133 106.883 51.978 C 106.528 50.682 106.389 50.194 106.083 49.167 C 105.933 48.663 105.746 48.025 105.667 47.75 C 105.588 47.475 105.324 46.575 105.081 45.75 C 104.567 44.004 104.481 43.702 103.999 41.917 C 103.801 41.183 103.578 40.433 103.504 40.25 C 103.431 40.067 103.241 39.429 103.083 38.833 C 102.925 38.237 102.737 37.563 102.665 37.333 C 102.593 37.104 102.408 36.467 102.254 35.917 C 102.1 35.367 101.912 34.729 101.837 34.5 C 101.689 34.045 101.19 32.323 100.751 30.75 C 100.598 30.2 100.376 29.525 100.259 29.25 L 100.046 28.75 L 99.93 29.333 C 99.866 29.654 99.752 30.067 99.676 30.25 C 99.6 30.433 99.457 30.883 99.358 31.25 C 99.169 31.947 98.573 33.986 97.896 36.25 C 97.676 36.983 97.425 37.846 97.337 38.167 C 97.249 38.487 96.988 39.387 96.757 40.167 C 95.512 44.359 94.94 46.346 94.74 47.167 C 94.684 47.396 94.576 47.733 94.5 47.917 C 94.423 48.1 94.226 48.775 94.061 49.417 C 93.897 50.058 93.57 51.146 93.335 51.833 L 92.908 53.083 L 91.045 53.13 C 88.968 53.183 88.825 53.108 88.497 51.795 C 88.422 51.495 88.162 50.575 87.919 49.75 C 87.676 48.925 87.415 48.025 87.34 47.75 C 87.264 47.475 87.075 46.8 86.92 46.25 C 86.765 45.7 86.574 45.025 86.497 44.75 C 86.42 44.475 86.234 43.837 86.083 43.333 C 85.933 42.829 85.746 42.192 85.667 41.917 C 85.588 41.642 85.324 40.742 85.081 39.917 C 84.838 39.092 84.576 38.192 84.5 37.917 C 84.424 37.642 84.162 36.742 83.919 35.917 C 83.676 35.092 83.415 34.192 83.34 33.917 C 82.793 31.924 82.376 30.484 81.243 26.667 C 81.012 25.887 80.739 24.95 80.637 24.583 C 80.535 24.217 80.35 23.595 80.226 23.203 C 79.752 21.705 79.794 21.667 81.941 21.667 C 83.539 21.667 83.676 21.693 83.903 22.042 M 227.25 22.084 C 229.241 22.481 229.381 22.524 230.75 23.159 C 233.238 24.312 235.667 26.108 235.667 26.793 C 235.667 26.957 235.105 27.649 234.42 28.331 L 233.172 29.569 L 232.768 29.243 C 229.757 26.811 228.379 26.135 225.784 25.819 C 222.112 25.371 218.751 26.588 216.031 29.348 C 214.936 30.459 213.5 32.455 213.5 32.864 C 213.5 32.994 213.437 33.171 213.36 33.258 C 212.652 34.057 212.369 38.664 212.909 40.583 C 213.691 43.358 215.553 45.855 218 47.406 C 218.95 48.009 219.401 48.231 220.917 48.841 C 221.687 49.151 222.364 49.225 224.417 49.225 C 226.459 49.225 227.126 49.153 227.917 48.845 C 229.65 48.171 231.231 47.254 232.167 46.381 C 232.487 46.081 232.898 45.836 233.079 45.835 C 233.476 45.833 235.667 47.959 235.667 48.346 C 235.667 49.285 231.553 51.961 229.167 52.575 C 228.571 52.728 227.796 52.929 227.445 53.021 C 226.466 53.277 222.424 53.223 221.167 52.936 C 217.908 52.192 215.473 50.871 213.333 48.687 C 211.573 46.891 209.667 44.017 209.667 43.16 C 209.667 43.069 209.597 42.865 209.513 42.706 C 208.872 41.5 208.518 37.806 208.814 35.402 C 209.899 26.586 218.537 20.346 227.25 22.084 M 160.25 30.164 C 163.507 30.727 166.932 34.925 166.274 37.548 L 166.16 38 L 164.342 38 L 162.524 38 L 162.315 37.067 C 161.488 33.37 156.935 32.793 155.214 36.167 C 154.944 36.696 154.909 37.508 154.833 44.917 L 154.75 53.083 L 152.917 53.083 L 151.083 53.083 L 151.037 42.083 C 151.012 36.033 151.032 30.915 151.082 30.708 C 151.197 30.233 154.449 30.121 154.829 30.579 C 155.008 30.794 155.107 30.793 155.642 30.565 C 156.37 30.255 158.448 29.855 158.917 29.934 C 159.1 29.966 159.7 30.069 160.25 30.164 M 136.207 30.497 C 143.905 32.437 147.711 40.704 144.144 47.736 C 139.683 56.531 127.041 56.405 122.583 47.522 C 118.051 38.491 126.421 28.031 136.207 30.497 M 261 30.41 C 263.044 30.926 264.413 31.553 265.887 32.649 C 270.442 36.035 271.925 42.521 269.316 47.655 C 264.203 57.719 249.445 55.875 246.737 44.833 C 246.482 43.795 246.425 40.63 246.647 39.9 C 246.728 39.634 246.891 39.079 247.009 38.667 C 247.517 36.898 248.595 35.116 250.022 33.689 C 251.746 31.965 253.363 31.087 256.167 30.35 C 257.062 30.115 259.974 30.151 261 30.41 M 285.667 30.404 C 288.02 31.136 289.893 32.581 291.233 34.7 C 292.167 36.179 292.103 36.371 290.4 37.165 C 288.639 37.986 288.807 37.998 288.172 37.009 C 285.762 33.253 281.273 33.109 278.876 36.711 C 277.179 39.261 276.711 42.457 277.675 44.917 C 280.065 51.013 285.868 51.619 288.589 46.056 C 289.205 44.799 289.048 44.816 291.571 45.725 C 292.441 46.038 292.699 46.399 292.465 46.975 C 291.647 48.996 290.976 50.006 289.593 51.299 C 284.207 56.337 275.786 53.259 273.845 45.542 C 273.747 45.152 273.592 44.543 273.5 44.189 C 273.408 43.835 273.333 42.85 273.333 42 C 273.333 41.15 273.408 40.165 273.5 39.811 C 273.592 39.457 273.749 38.848 273.849 38.458 C 275.32 32.755 280.931 28.931 285.667 30.404 M 188.051 34.431 C 186.655 35.107 185.343 36.764 184.501 38.917 C 182.694 43.533 185.96 49.833 190.16 49.833 C 195.745 49.833 198.388 40.776 194.238 35.859 C 193.797 35.337 192.386 34.333 192.093 34.333 C 191.961 34.333 191.807 34.258 191.75 34.167 C 191.526 33.804 188.97 33.986 188.051 34.431 M 139.249 36.296 C 135.669 39.764 133.6 41.667 133.411 41.667 C 132.839 41.667 132.777 42.176 133.283 42.715 C 133.559 43.009 134.446 44.319 135.254 45.625 C 136.525 47.68 137.167 48.424 137.167 47.843 C 137.167 47.756 136.454 46.552 135.583 45.167 C 134.712 43.781 134 42.51 134 42.343 C 134 42.166 134.997 41.104 136.375 39.812 C 140.423 36.018 141.167 35.28 141.167 35.053 C 141.167 34.588 140.697 34.892 139.249 36.296 M 263.833 36.845 C 258.291 42.161 258.56 41.97 254.758 43.305 C 253.478 43.754 252.403 44.206 252.369 44.311 C 252.265 44.622 252.835 44.528 254.333 43.988 C 256.81 43.095 258.071 42.685 258.5 42.633 C 258.729 42.606 258.988 42.433 259.076 42.25 C 259.164 42.067 259.839 41.354 260.576 40.667 C 265.456 36.117 266.333 35.263 266.333 35.06 C 266.333 34.569 265.835 34.925 263.833 36.845" stroke-linecap="round" />
</g>
<g transform="matrix(1 0 0 1 194.39 43.83)" id="8bhfDusamj6M1rXl1GM79"  >
<path style="stroke: none; stroke-width: 1; stroke-dasharray: none; stroke-linecap: butt; stroke-dashoffset: 0; stroke-linejoin: miter; stroke-miterlimit: 4; fill: rgb(244,108,33); fill-rule: evenodd; opacity: 1;" vector-effect="non-scaling-stroke"  transform=" translate(-193.62, -43.06)" d="M 127.095 32.287 C 126.918 32.332 126.686 32.455 126.578 32.56 C 126.47 32.664 126.005 33.05 125.544 33.417 C 125.082 33.783 124.538 34.325 124.334 34.62 C 124.13 34.916 123.782 35.366 123.561 35.62 C 123.339 35.875 123.114 36.252 123.061 36.458 C 123.008 36.665 122.897 36.833 122.815 36.833 C 122.734 36.833 122.667 36.983 122.667 37.167 C 122.667 37.35 122.604 37.5 122.528 37.5 C 122.452 37.5 122.298 37.856 122.186 38.292 C 122.075 38.727 121.902 39.383 121.802 39.75 C 121.546 40.697 121.444 43.475 121.641 44.167 C 121.732 44.487 121.94 45.237 122.104 45.833 C 122.267 46.429 122.442 46.954 122.492 47 C 122.542 47.046 122.789 47.476 123.041 47.955 C 123.292 48.435 123.63 48.991 123.791 49.192 C 125.456 51.265 127.116 52.532 129.083 53.23 C 129.542 53.393 130.097 53.614 130.317 53.721 C 130.896 54.004 136.364 53.992 136.458 53.708 C 136.497 53.594 136.673 53.5 136.849 53.5 C 137.026 53.5 137.301 53.432 137.461 53.348 C 137.62 53.265 138.181 52.99 138.708 52.738 C 139.235 52.485 139.667 52.216 139.667 52.139 C 139.667 52.063 139.774 52 139.905 52 C 140.667 52 140.744 51.228 140.05 50.535 C 139.839 50.324 139.667 50.08 139.667 49.992 C 139.667 49.905 139.561 49.833 139.432 49.833 C 139.284 49.833 139.228 49.717 139.281 49.516 C 139.337 49.299 139.257 49.165 139.026 49.092 C 138.809 49.023 138.71 48.873 138.749 48.67 C 138.786 48.477 138.656 48.255 138.41 48.094 C 138.167 47.935 138.048 47.735 138.107 47.583 C 138.159 47.446 138.138 47.333 138.059 47.333 C 137.979 47.333 137.811 47.099 137.684 46.812 C 137.557 46.525 137.329 46.257 137.178 46.218 C 136.927 46.152 136.333 45.061 136.333 44.666 C 136.333 44.574 136.221 44.5 136.083 44.5 C 135.946 44.5 135.833 44.387 135.833 44.248 C 135.833 44.11 135.683 43.868 135.5 43.711 C 135.317 43.554 135.167 43.293 135.167 43.13 C 135.167 42.967 135.059 42.833 134.928 42.833 C 134.797 42.833 134.666 42.665 134.636 42.458 C 134.607 42.25 134.532 42.162 134.468 42.259 C 134.405 42.356 134.459 42.619 134.587 42.843 C 134.715 43.067 134.875 43.362 134.942 43.5 C 135.01 43.637 135.163 43.849 135.282 43.97 C 135.402 44.091 135.5 44.298 135.5 44.429 C 135.5 44.56 135.575 44.667 135.667 44.667 C 135.758 44.667 135.833 44.773 135.833 44.903 C 135.833 45.033 135.897 45.164 135.975 45.194 C 136.052 45.225 136.305 45.587 136.537 46 C 136.768 46.413 137.092 46.981 137.257 47.264 C 137.422 47.546 137.509 47.902 137.451 48.055 C 137.326 48.379 136.581 48.431 136.438 48.125 C 136.384 48.01 136.15 47.617 135.918 47.25 C 135.685 46.883 135.45 46.452 135.395 46.292 C 135.34 46.131 135.24 46 135.173 46 C 135.107 46 134.909 45.719 134.735 45.375 C 134.56 45.031 134.369 44.712 134.31 44.667 C 134.158 44.547 133.513 43.467 133.399 43.14 C 133.346 42.988 133.159 42.827 132.985 42.781 C 132.476 42.648 132.549 41.703 133.083 41.5 C 133.646 41.286 133.631 40.167 133.066 40.167 C 132.929 40.167 132.833 39.995 132.833 39.75 C 132.833 39.521 132.758 39.333 132.667 39.333 C 132.575 39.333 132.5 39.253 132.5 39.156 C 132.5 39.058 132.279 38.792 132.008 38.565 C 131.738 38.337 131.555 38.052 131.601 37.93 C 131.648 37.809 131.564 37.663 131.416 37.606 C 131.267 37.549 131.189 37.431 131.243 37.345 C 131.297 37.258 131.241 37.126 131.12 37.052 C 130.788 36.848 130.167 35.901 130.167 35.599 C 130.167 35.44 130.026 35.333 129.814 35.333 C 129.527 35.333 129.476 35.255 129.541 34.917 C 129.59 34.658 129.544 34.5 129.419 34.5 C 129.083 34.5 128.667 33.917 128.667 33.445 C 128.667 33.057 128.527 32.929 128.15 32.972 C 128.095 32.978 128.082 32.781 128.121 32.533 C 128.172 32.215 128.146 32.149 128.034 32.309 C 127.923 32.467 127.841 32.48 127.761 32.351 C 127.642 32.158 127.614 32.155 127.095 32.287 M 252.167 32.288 C 252.029 32.34 251.879 32.432 251.833 32.492 C 251.787 32.552 251.454 32.822 251.092 33.092 C 249.104 34.575 247.48 37.124 246.957 39.583 C 245.837 44.852 248.442 50.452 253.059 52.698 C 253.623 52.972 254.214 53.264 254.373 53.348 C 254.532 53.432 254.798 53.5 254.964 53.5 C 255.131 53.5 255.36 53.594 255.475 53.708 C 255.626 53.859 256.493 53.917 258.62 53.917 C 260.82 53.917 261.573 53.864 261.625 53.708 C 261.663 53.594 261.839 53.5 262.016 53.5 C 262.193 53.5 262.468 53.433 262.627 53.352 C 262.786 53.27 263.216 53.064 263.583 52.893 C 265.216 52.133 265.921 51.557 265.637 51.214 C 265.539 51.096 265.509 51 265.569 51 C 265.629 51 265.597 50.848 265.498 50.662 C 265.398 50.476 265.257 50.361 265.185 50.405 C 265.014 50.511 264.333 49.592 264.333 49.257 C 264.333 49.116 264.202 48.998 264.042 48.995 C 263.776 48.99 263.774 48.971 264.019 48.784 C 264.306 48.566 264.23 48.443 263.574 48.061 C 263.396 47.957 263.27 47.76 263.295 47.622 C 263.319 47.484 263.221 47.326 263.076 47.27 C 262.931 47.215 262.859 47.093 262.917 47 C 262.974 46.907 262.904 46.786 262.761 46.731 C 262.617 46.676 262.5 46.522 262.5 46.389 C 262.5 46.24 262.42 46.195 262.292 46.272 C 262.15 46.357 262.157 46.307 262.312 46.115 C 262.517 45.862 262.462 45.765 262.138 45.809 C 261.895 45.842 261.015 44.655 261.106 44.417 C 261.159 44.279 261.119 44.167 261.018 44.167 C 260.916 44.167 260.833 44.054 260.833 43.917 C 260.833 43.779 260.721 43.667 260.583 43.667 C 260.446 43.667 260.333 43.553 260.333 43.415 C 260.333 43.277 260.185 43.036 260.004 42.881 C 259.759 42.671 259.726 42.564 259.879 42.466 C 260.035 42.365 260.024 42.294 259.833 42.168 C 259.641 42.04 259.547 42.098 259.426 42.418 C 259.302 42.746 259.152 42.833 258.716 42.833 C 258.411 42.833 258.032 42.9 257.873 42.981 C 257.326 43.259 256.748 43.477 255.833 43.75 C 255.329 43.901 254.767 44.088 254.583 44.166 C 253.524 44.616 252.646 44.861 252.411 44.771 C 252.035 44.627 252.165 43.936 252.583 43.857 C 252.767 43.823 252.954 43.747 253 43.688 C 253.122 43.531 254.701 42.998 255.042 42.999 C 255.202 43 255.333 42.925 255.333 42.833 C 255.333 42.742 255.521 42.667 255.75 42.667 C 255.979 42.667 256.167 42.592 256.167 42.5 C 256.167 42.408 256.298 42.33 256.458 42.325 C 256.619 42.321 257.012 42.175 257.333 42.001 C 257.654 41.827 258.085 41.608 258.292 41.513 C 258.695 41.329 258.8 41.002 258.458 40.997 C 258.319 40.996 258.333 40.94 258.5 40.83 C 258.712 40.689 258.69 40.618 258.351 40.355 C 258.132 40.185 258.002 39.966 258.062 39.868 C 258.123 39.77 258.015 39.58 257.824 39.445 C 257.568 39.266 257.531 39.167 257.683 39.073 C 257.829 38.983 257.779 38.904 257.513 38.805 C 257.305 38.729 257.096 38.517 257.049 38.335 C 257.001 38.153 256.896 38.044 256.816 38.094 C 256.736 38.143 256.711 38.077 256.761 37.947 C 256.812 37.816 256.731 37.663 256.582 37.606 C 256.434 37.549 256.354 37.435 256.404 37.353 C 256.455 37.271 256.385 37.112 256.248 36.998 C 256.112 36.885 256 36.857 256 36.935 C 256 37.014 255.85 36.799 255.667 36.456 C 255.483 36.114 255.333 35.722 255.333 35.584 C 255.333 35.44 255.184 35.333 254.982 35.333 C 254.687 35.333 254.648 35.264 254.739 34.9 C 254.816 34.596 254.787 34.488 254.643 34.536 C 254.334 34.639 253.492 33.627 253.689 33.389 C 253.801 33.255 253.753 33.163 253.533 33.094 C 253.295 33.018 253.233 32.878 253.287 32.538 C 253.338 32.217 253.313 32.15 253.201 32.309 C 253.09 32.467 253.007 32.48 252.928 32.351 C 252.806 32.154 252.57 32.135 252.167 32.288" stroke-linecap="round" />
</g>
<g transform="matrix(1 0 0 1 196.74 42.9)" id="RfqZT-r8_hszSHzhuV7rc"  >
<path style="stroke: none; stroke-width: 1; stroke-dasharray: none; stroke-linecap: butt; stroke-dashoffset: 0; stroke-linejoin: miter; stroke-miterlimit: 4; fill: rgb(245,138,44); fill-rule: evenodd; opacity: 1;" vector-effect="non-scaling-stroke"  transform=" translate(-195.97, -42.13)" d="M 130.869 30.43 C 128.462 30.957 126.134 32.311 124.476 34.147 C 123.235 35.523 122.059 37.5 122.482 37.5 C 122.584 37.5 122.667 37.35 122.667 37.167 C 122.667 36.983 122.734 36.833 122.815 36.833 C 122.897 36.833 123.008 36.665 123.061 36.458 C 123.114 36.252 123.339 35.875 123.561 35.62 C 123.782 35.366 124.13 34.916 124.334 34.62 C 124.538 34.325 125.082 33.783 125.544 33.417 C 126.005 33.05 126.466 32.669 126.568 32.57 C 126.862 32.284 127.632 32.143 127.761 32.351 C 127.841 32.48 127.922 32.468 128.034 32.309 C 128.146 32.149 128.172 32.215 128.121 32.533 C 128.082 32.781 128.095 32.978 128.15 32.972 C 128.531 32.928 128.667 33.06 128.667 33.474 C 128.667 33.934 129.098 34.5 129.448 34.5 C 129.543 34.5 129.585 34.688 129.541 34.917 C 129.476 35.255 129.527 35.333 129.814 35.333 C 130.026 35.333 130.167 35.44 130.167 35.599 C 130.167 35.901 130.788 36.848 131.12 37.052 C 131.241 37.126 131.297 37.258 131.243 37.345 C 131.189 37.431 131.267 37.549 131.416 37.606 C 131.564 37.663 131.648 37.809 131.601 37.93 C 131.555 38.052 131.738 38.337 132.008 38.565 C 132.279 38.792 132.5 39.058 132.5 39.156 C 132.5 39.253 132.575 39.333 132.667 39.333 C 132.758 39.333 132.833 39.521 132.833 39.75 C 132.833 39.995 132.929 40.167 133.066 40.167 C 133.638 40.167 133.645 41.287 133.073 41.504 C 132.602 41.683 132.526 42.651 132.971 42.797 C 133.152 42.856 133.154 42.808 132.981 42.532 C 132.76 42.178 132.993 41.667 133.376 41.667 C 133.534 41.667 134.834 40.474 139 36.509 C 139.962 35.593 140.839 34.841 140.948 34.838 C 141.391 34.827 141.355 35.235 140.878 35.652 C 140.601 35.893 139.336 37.064 138.066 38.254 C 136.797 39.443 135.362 40.784 134.879 41.233 C 133.704 42.323 133.602 41.969 136.359 46.373 C 137.215 47.74 137.307 48 136.936 48 C 136.809 48 135.97 46.823 135.071 45.385 C 134.173 43.946 133.407 42.863 133.369 42.978 C 133.33 43.092 133.419 43.319 133.566 43.481 C 133.713 43.643 133.833 43.85 133.833 43.94 C 133.833 44.03 133.965 44.251 134.125 44.431 C 134.285 44.612 134.56 45.038 134.735 45.38 C 134.909 45.721 135.107 46 135.173 46 C 135.24 46 135.34 46.131 135.395 46.292 C 135.45 46.452 135.685 46.883 135.918 47.25 C 136.15 47.617 136.384 48.01 136.438 48.125 C 136.581 48.431 137.326 48.379 137.451 48.055 C 137.509 47.902 137.422 47.546 137.257 47.264 C 137.092 46.981 136.768 46.413 136.537 46 C 136.305 45.587 136.052 45.225 135.975 45.194 C 135.897 45.164 135.833 45.033 135.833 44.903 C 135.833 44.773 135.758 44.667 135.667 44.667 C 135.575 44.667 135.5 44.56 135.5 44.429 C 135.5 44.298 135.402 44.091 135.282 43.97 C 135.163 43.849 135.01 43.637 134.942 43.5 C 134.875 43.362 134.715 43.067 134.587 42.843 C 134.459 42.619 134.405 42.356 134.468 42.259 C 134.532 42.162 134.607 42.25 134.636 42.458 C 134.666 42.665 134.797 42.833 134.928 42.833 C 135.059 42.833 135.167 42.967 135.167 43.13 C 135.167 43.293 135.317 43.554 135.5 43.711 C 135.683 43.868 135.833 44.11 135.833 44.248 C 135.833 44.387 135.946 44.5 136.083 44.5 C 136.221 44.5 136.333 44.574 136.333 44.666 C 136.333 45.061 136.927 46.152 137.178 46.218 C 137.329 46.257 137.557 46.525 137.684 46.812 C 137.811 47.099 137.979 47.333 138.059 47.333 C 138.138 47.333 138.159 47.446 138.107 47.583 C 138.048 47.735 138.167 47.935 138.41 48.094 C 138.656 48.255 138.786 48.477 138.749 48.67 C 138.71 48.873 138.809 49.023 139.026 49.092 C 139.257 49.165 139.337 49.299 139.281 49.516 C 139.228 49.717 139.284 49.833 139.432 49.833 C 139.561 49.833 139.667 49.905 139.667 49.992 C 139.667 50.08 139.839 50.324 140.05 50.535 C 140.744 51.228 140.667 52 139.905 52 C 139.774 52 139.667 52.063 139.667 52.139 C 139.667 52.216 139.235 52.485 138.708 52.738 C 138.181 52.99 137.62 53.265 137.461 53.348 C 137.301 53.432 137.02 53.5 136.836 53.5 C 136.651 53.5 136.5 53.575 136.5 53.667 C 136.5 54.431 140.275 52.381 141.93 50.718 C 150.304 42.303 142.448 27.893 130.869 30.43 M 256.083 30.423 C 251.974 31.338 248.597 34.28 247.191 38.167 C 246.802 39.243 246.549 40.725 246.821 40.333 C 246.917 40.196 246.996 39.879 246.997 39.628 C 246.999 39.378 247.121 38.853 247.268 38.462 C 248.16 36.095 249.4 34.355 251.092 33.092 C 251.454 32.822 251.788 32.547 251.835 32.48 C 252.003 32.242 252.796 32.137 252.919 32.338 C 253.011 32.486 253.081 32.479 253.201 32.309 C 253.313 32.15 253.338 32.217 253.287 32.538 C 253.233 32.878 253.295 33.018 253.533 33.094 C 253.753 33.163 253.801 33.255 253.689 33.389 C 253.492 33.627 254.334 34.639 254.643 34.536 C 254.787 34.488 254.816 34.596 254.739 34.9 C 254.648 35.264 254.687 35.333 254.982 35.333 C 255.184 35.333 255.333 35.44 255.333 35.584 C 255.333 35.722 255.483 36.114 255.667 36.456 C 255.85 36.799 256 37.014 256 36.935 C 256 36.857 256.112 36.885 256.248 36.998 C 256.385 37.112 256.455 37.271 256.404 37.353 C 256.354 37.435 256.434 37.549 256.582 37.606 C 256.731 37.663 256.812 37.816 256.761 37.947 C 256.711 38.077 256.736 38.143 256.816 38.094 C 256.896 38.044 257.001 38.153 257.049 38.335 C 257.096 38.517 257.305 38.729 257.513 38.805 C 257.779 38.904 257.829 38.983 257.683 39.073 C 257.531 39.167 257.568 39.266 257.824 39.445 C 258.015 39.58 258.123 39.77 258.062 39.868 C 258.002 39.966 258.132 40.185 258.351 40.355 C 258.69 40.618 258.712 40.689 258.5 40.83 C 258.333 40.94 258.319 40.996 258.458 40.997 C 258.8 41.002 258.695 41.329 258.292 41.513 C 258.085 41.608 257.654 41.827 257.333 42.001 C 257.012 42.175 256.619 42.321 256.458 42.325 C 256.298 42.33 256.167 42.408 256.167 42.5 C 256.167 42.592 255.979 42.667 255.75 42.667 C 255.521 42.667 255.333 42.742 255.333 42.833 C 255.333 42.925 255.358 43 255.388 43 C 255.645 43 257.959 42.065 258.133 41.891 C 258.256 41.767 258.44 41.667 258.54 41.667 C 258.728 41.667 259.035 41.384 263.493 37.112 C 265.862 34.843 266.088 34.667 266.293 34.946 C 266.486 35.21 266.466 35.29 266.144 35.551 C 264.914 36.549 259.167 42.076 259.167 42.261 C 259.167 42.383 259.035 42.56 258.875 42.653 C 258.609 42.808 258.613 42.824 258.926 42.828 C 259.141 42.831 259.328 42.678 259.426 42.418 C 259.547 42.098 259.641 42.04 259.833 42.168 C 260.024 42.294 260.035 42.365 259.879 42.466 C 259.726 42.564 259.759 42.671 260.004 42.881 C 260.185 43.036 260.333 43.277 260.333 43.415 C 260.333 43.553 260.446 43.667 260.583 43.667 C 260.721 43.667 260.833 43.779 260.833 43.917 C 260.833 44.054 260.916 44.167 261.018 44.167 C 261.119 44.167 261.159 44.279 261.106 44.417 C 261.015 44.655 261.895 45.842 262.138 45.809 C 262.462 45.765 262.517 45.862 262.312 46.115 C 262.157 46.307 262.15 46.357 262.292 46.272 C 262.42 46.195 262.5 46.24 262.5 46.389 C 262.5 46.522 262.617 46.676 262.761 46.731 C 262.904 46.786 262.974 46.907 262.917 47 C 262.859 47.093 262.931 47.215 263.076 47.27 C 263.221 47.326 263.319 47.484 263.295 47.622 C 263.27 47.76 263.396 47.957 263.574 48.061 C 264.23 48.443 264.306 48.566 264.019 48.784 C 263.774 48.971 263.776 48.99 264.042 48.995 C 264.202 48.998 264.333 49.116 264.333 49.257 C 264.333 49.592 265.014 50.511 265.185 50.405 C 265.257 50.361 265.398 50.476 265.498 50.662 C 265.597 50.848 265.629 51 265.569 51 C 265.509 51 265.539 51.096 265.637 51.214 C 265.921 51.557 265.216 52.133 263.583 52.893 C 263.216 53.064 262.786 53.27 262.627 53.352 C 262.468 53.433 262.187 53.5 262.002 53.5 C 261.818 53.5 261.667 53.583 261.667 53.685 C 261.667 54.447 265.506 52.301 267.15 50.619 C 275.36 42.219 267.503 27.879 256.083 30.423 M 121.951 38.452 C 121.596 39.549 121.418 40.664 121.652 40.333 C 121.749 40.196 121.829 39.947 121.831 39.781 C 121.832 39.615 121.955 39.106 122.105 38.65 C 122.254 38.194 122.338 37.783 122.293 37.737 C 122.247 37.691 122.093 38.013 121.951 38.452 M 246.561 42.25 C 246.561 43.167 246.589 43.52 246.623 43.036 C 246.657 42.552 246.656 41.802 246.622 41.369 C 246.588 40.937 246.56 41.333 246.561 42.25 M 121.389 42.167 C 121.389 42.854 121.419 43.135 121.455 42.792 C 121.491 42.448 121.491 41.885 121.455 41.542 C 121.419 41.198 121.389 41.479 121.389 42.167 M 255.583 43.587 C 253.133 44.473 252.333 44.659 252.333 44.342 C 252.333 44.255 252.465 44.102 252.625 44.002 C 252.892 43.837 252.888 43.825 252.583 43.871 C 252.164 43.933 252.032 44.625 252.411 44.771 C 252.646 44.861 253.524 44.616 254.583 44.166 C 254.767 44.088 255.329 43.902 255.833 43.753 C 256.337 43.604 256.88 43.411 257.039 43.324 C 257.199 43.238 257.424 43.164 257.539 43.161 C 257.655 43.158 257.896 43.046 258.074 42.911 C 258.573 42.533 258.272 42.615 255.583 43.587 M 253.833 43.299 C 252.956 43.62 252.919 43.641 253.026 43.748 C 253.102 43.824 255.001 43.217 255.153 43.068 C 255.317 42.908 254.524 43.046 253.833 43.299 M 121.503 44.191 C 121.499 44.565 122.172 46.717 122.263 46.625 C 122.304 46.585 122.224 46.231 122.085 45.838 C 121.947 45.446 121.832 44.965 121.831 44.771 C 121.829 44.576 121.756 44.304 121.667 44.167 C 121.526 43.95 121.505 43.953 121.503 44.191 M 246.762 44.667 C 246.822 45.079 246.937 45.529 247.018 45.667 C 247.11 45.821 247.126 45.631 247.061 45.167 C 247.003 44.754 246.887 44.304 246.804 44.167 C 246.708 44.008 246.692 44.191 246.762 44.667 M 247.172 46.167 C 247.172 46.304 247.244 46.529 247.333 46.667 C 247.477 46.889 247.495 46.889 247.495 46.667 C 247.495 46.529 247.422 46.304 247.333 46.167 C 247.19 45.944 247.172 45.944 247.172 46.167 M 122.84 47.958 C 124.007 50.033 127.613 53.443 128.112 52.943 C 128.168 52.887 128.072 52.789 127.899 52.726 C 126.417 52.182 123.793 49.566 122.959 47.801 C 122.752 47.364 122.52 47.005 122.442 47.003 C 122.365 47.001 122.544 47.431 122.84 47.958 M 247.994 47.964 C 248.533 48.975 250.155 51.067 250.293 50.929 C 250.337 50.885 249.996 50.425 249.534 49.906 C 249.072 49.388 248.458 48.522 248.171 47.982 C 247.883 47.442 247.61 47 247.564 47 C 247.518 47 247.712 47.434 247.994 47.964 M 250.652 51.219 C 250.909 51.543 251.833 52.239 251.833 52.109 C 251.833 52.064 251.515 51.779 251.125 51.476 C 250.735 51.172 250.523 51.056 250.652 51.219 M 252 52.239 C 252 52.367 253.185 53.038 253.266 52.956 C 253.311 52.911 253.044 52.716 252.674 52.523 C 252.303 52.33 252 52.202 252 52.239 M 128.333 53.081 C 128.333 53.187 129.278 53.578 129.916 53.736 C 130.672 53.924 130.282 53.652 129.299 53.306 C 128.336 52.967 128.333 52.966 128.333 53.081 M 253.5 53.07 C 253.5 53.178 254.546 53.63 255.14 53.779 C 255.425 53.851 255.514 53.824 255.432 53.691 C 255.367 53.586 255.146 53.5 254.94 53.5 C 254.735 53.5 254.495 53.433 254.408 53.352 C 254.209 53.166 253.5 52.946 253.5 53.07 M 130.965 54.03 C 131.327 54.174 135.455 54.17 135.968 54.025 C 136.18 53.965 135.077 53.917 133.517 53.917 C 131.957 53.917 130.809 53.968 130.965 54.03 M 256.132 54.03 C 256.493 54.174 260.621 54.17 261.135 54.025 C 261.347 53.965 260.244 53.917 258.684 53.917 C 257.124 53.917 255.976 53.968 256.132 54.03" stroke-linecap="round" />
</g>
<g transform="matrix(1 0 0 1 198.77 38.22)" id="mQhJps911MNBF4x7oPS_M"  >
<path style="stroke: none; stroke-width: 1; stroke-dasharray: none; stroke-linecap: butt; stroke-dashoffset: 0; stroke-linejoin: miter; stroke-miterlimit: 4; fill: rgb(152,152,152); fill-rule: evenodd; opacity: 1;" vector-effect="non-scaling-stroke"  transform=" translate(-198, -37.45)" d="M 170.034 20.7 C 169.743 20.99 169.743 52.676 170.033 52.967 C 170.312 53.246 173.235 53.239 173.46 52.958 C 173.715 52.641 173.836 22.458 173.584 22.112 C 173.407 21.871 171.38 20.855 170.575 20.605 C 170.388 20.547 170.144 20.589 170.034 20.7 M 198.517 21.178 C 197.774 21.539 197.118 21.833 197.06 21.833 C 196.576 21.833 196.511 22.514 196.505 27.555 L 196.5 32.693 L 195.841 32.129 C 195.218 31.595 193.767 30.808 192.518 30.325 C 191.762 30.033 188.563 30.035 187.815 30.328 C 184.902 31.471 183.244 32.99 181.626 36 C 181.089 37 180.782 37.852 180.339 39.583 C 180.114 40.462 180.119 43.362 180.347 44.231 C 180.804 45.975 180.932 46.335 181.548 47.616 C 182.934 50.495 185.275 52.627 187.917 53.415 C 188.795 53.676 191.763 53.759 192.12 53.532 C 192.232 53.461 191.482 53.406 190.454 53.41 C 184.049 53.433 179.111 46.5 180.575 39.539 C 182.278 31.443 189.469 27.833 195.425 32.083 C 196.003 32.496 196.519 32.833 196.572 32.833 C 196.624 32.833 196.667 30.552 196.667 27.764 C 196.667 21.777 196.522 22.336 198.283 21.503 C 199.802 20.785 200.092 20.716 200.223 21.042 C 200.276 21.173 200.312 21.149 200.32 20.976 C 200.345 20.468 199.873 20.521 198.517 21.178 M 239.542 20.856 C 239.322 21.078 239.218 52.338 239.434 52.903 C 239.518 53.121 239.849 53.167 241.351 53.167 L 243.167 53.167 L 243.129 50.042 L 243.091 46.917 L 243.042 49.958 L 242.992 53 L 241.333 53 L 239.673 53 L 239.559 52.547 C 239.395 51.894 239.632 21.135 239.802 20.965 C 239.981 20.786 242.676 21.917 242.958 22.289 C 243.15 22.542 243.167 22.541 243.167 22.272 C 243.167 21.706 239.945 20.447 239.542 20.856 M 297.218 20.875 C 297.006 21.204 296.957 52.608 297.168 53.003 C 297.433 53.498 300.564 53.504 300.827 53.011 C 300.932 52.815 301 51.154 301 48.776 L 301 44.863 L 303.098 42.89 C 305.08 41.026 305.667 40.589 305.667 40.976 C 305.667 41.136 305.915 41.699 307.355 44.808 C 307.71 45.574 308 46.224 308 46.254 C 308 46.284 308.253 46.858 308.562 47.529 C 308.871 48.201 309.293 49.125 309.501 49.583 C 309.708 50.042 310.093 50.887 310.355 51.463 C 310.618 52.038 310.833 52.57 310.833 52.645 C 310.833 53.172 311.478 53.344 313.27 53.298 C 315.48 53.24 315.491 53.219 314.508 51.101 C 314.137 50.301 313.833 49.616 313.833 49.578 C 313.833 49.54 313.618 49.038 313.355 48.463 C 313.093 47.887 312.708 47.042 312.5 46.583 C 312.292 46.125 311.907 45.279 311.645 44.704 C 311.382 44.129 311.167 43.628 311.167 43.591 C 311.167 43.554 310.914 42.975 310.605 42.304 C 309.855 40.676 309.447 39.763 308.991 38.693 L 308.612 37.802 L 309.098 37.359 C 309.365 37.116 310.071 36.504 310.667 36 C 311.262 35.496 311.833 35.008 311.935 34.917 C 312.712 34.217 314.314 32.838 315.625 31.74 C 315.849 31.553 316 31.239 316 30.963 L 316 30.5 L 313.574 30.5 L 311.148 30.5 L 307.866 33.369 C 306.06 34.947 304.283 36.512 303.917 36.847 C 303.55 37.182 302.762 37.887 302.167 38.413 L 301.083 39.37 L 301 30.755 C 300.911 21.572 300.92 21.667 300.139 21.667 C 300.067 21.667 299.517 21.442 298.917 21.167 C 297.713 20.615 297.419 20.565 297.218 20.875 M 171.697 21.282 C 172.276 21.529 172.919 21.838 173.125 21.968 L 173.5 22.205 L 173.497 37.394 C 173.496 45.748 173.434 52.68 173.359 52.798 C 173.259 52.955 172.796 53 171.653 52.965 L 170.083 52.917 L 170.04 37.083 C 170.017 28.375 170.033 21.156 170.077 21.042 C 170.194 20.734 170.528 20.783 171.697 21.282 M 299.048 21.509 C 301.029 22.352 300.833 21.301 300.833 31.109 C 300.833 35.816 300.893 39.667 300.966 39.667 C 301.039 39.667 301.921 38.941 302.925 38.055 C 308.099 33.486 309.952 31.859 310.632 31.287 L 311.381 30.657 L 313.565 30.704 C 315.433 30.743 315.75 30.789 315.75 31.015 C 315.75 31.161 314.119 32.69 312.125 34.413 C 309.833 36.394 308.5 37.66 308.5 37.855 C 308.5 38.025 309.183 39.683 310.019 41.54 C 310.854 43.397 311.672 45.217 311.837 45.583 C 312.002 45.95 312.45 46.962 312.833 47.833 C 313.506 49.361 313.758 49.923 314.606 51.781 C 315.178 53.036 315.221 53 313.156 53 L 311.312 53 L 310.512 51.292 C 309.485 49.095 309.007 48.043 308.334 46.5 C 307.758 45.178 306.994 43.489 306.127 41.619 C 305.477 40.218 305.63 40.168 303.012 42.64 L 300.833 44.696 L 300.833 48.585 C 300.833 50.723 300.788 52.591 300.732 52.736 C 300.578 53.137 297.417 53.125 297.262 52.722 C 297.152 52.434 297.311 21.577 297.425 21.208 C 297.519 20.906 297.718 20.943 299.048 21.509 M 80.111 21.778 C 79.94 21.949 79.978 22.419 80.226 23.203 C 80.35 23.595 80.535 24.217 80.637 24.583 C 80.739 24.95 81.012 25.887 81.243 26.667 C 82.376 30.484 82.793 31.924 83.34 33.917 C 83.415 34.192 83.676 35.092 83.919 35.917 C 84.162 36.742 84.424 37.642 84.5 37.917 C 84.576 38.192 84.838 39.092 85.081 39.917 C 85.324 40.742 85.588 41.642 85.667 41.917 C 85.746 42.192 85.933 42.829 86.083 43.333 C 86.234 43.837 86.42 44.475 86.497 44.75 C 86.574 45.025 86.765 45.7 86.92 46.25 C 87.075 46.8 87.264 47.475 87.34 47.75 C 87.415 48.025 87.676 48.925 87.919 49.75 C 88.162 50.575 88.422 51.495 88.497 51.795 C 88.825 53.108 88.968 53.183 91.045 53.13 L 92.908 53.083 L 93.335 51.833 C 93.57 51.146 93.897 50.058 94.061 49.417 C 94.226 48.775 94.423 48.1 94.5 47.917 C 94.576 47.733 94.684 47.396 94.74 47.167 C 94.94 46.346 95.512 44.359 96.757 40.167 C 96.988 39.387 97.249 38.487 97.337 38.167 C 97.425 37.846 97.676 36.983 97.896 36.25 C 98.573 33.986 99.169 31.947 99.358 31.25 C 99.457 30.883 99.6 30.433 99.676 30.25 C 99.752 30.067 99.866 29.654 99.93 29.333 L 100.046 28.75 L 100.259 29.25 C 100.376 29.525 100.598 30.2 100.751 30.75 C 101.19 32.323 101.689 34.045 101.837 34.5 C 101.912 34.729 102.1 35.367 102.254 35.917 C 102.408 36.467 102.593 37.104 102.665 37.333 C 102.737 37.563 102.925 38.237 103.083 38.833 C 103.241 39.429 103.431 40.067 103.504 40.25 C 103.578 40.433 103.801 41.183 103.999 41.917 C 104.481 43.702 104.567 44.004 105.081 45.75 C 105.324 46.575 105.588 47.475 105.667 47.75 C 105.746 48.025 105.933 48.663 106.083 49.167 C 106.389 50.194 106.528 50.682 106.883 51.978 C 107.199 53.133 107.258 53.161 109.355 53.164 C 111.369 53.167 111.315 53.199 111.736 51.75 C 111.896 51.2 112.087 50.563 112.161 50.333 C 112.234 50.104 112.375 49.617 112.474 49.25 C 112.573 48.883 112.833 47.983 113.053 47.25 C 113.273 46.517 113.583 45.467 113.742 44.917 C 114.125 43.589 114.552 42.125 115.178 40 C 115.76 38.021 116.111 36.777 116.26 36.167 C 116.316 35.938 116.422 35.6 116.497 35.417 C 116.571 35.233 116.8 34.483 117.004 33.75 C 117.208 33.017 117.468 32.117 117.581 31.75 C 117.694 31.383 117.921 30.596 118.085 30 C 118.249 29.404 118.563 28.317 118.782 27.583 C 119.001 26.85 119.251 25.988 119.338 25.667 C 119.425 25.346 119.684 24.485 119.914 23.755 C 120.581 21.642 120.599 21.667 118.333 21.667 C 116.398 21.667 116.395 21.668 115.99 23.059 C 115.799 23.714 115.575 24.475 115.492 24.75 C 115.007 26.359 114.472 28.171 114.311 28.75 C 113.86 30.371 113.678 31.008 113.264 32.417 C 113.021 33.242 112.741 34.217 112.642 34.583 C 112.543 34.95 112.401 35.438 112.327 35.667 C 112.254 35.896 112.064 36.533 111.906 37.083 C 111.749 37.633 111.486 38.533 111.324 39.083 C 111.161 39.633 110.899 40.533 110.741 41.083 C 110.198 42.974 110.018 43.586 109.644 44.82 L 109.269 46.057 L 108.988 45.153 C 108.834 44.657 108.624 43.95 108.522 43.583 C 108.28 42.71 107.837 41.192 107.671 40.667 C 107.598 40.438 107.446 39.912 107.332 39.5 C 106.925 38.02 106.558 36.735 105.738 33.917 C 105.605 33.458 105.413 32.783 105.311 32.417 C 104.986 31.246 104.713 30.281 104.367 29.083 C 104.182 28.442 103.9 27.467 103.742 26.917 C 102.514 22.656 102.278 21.922 102.093 21.794 C 101.996 21.727 101.076 21.671 100.048 21.669 C 97.986 21.666 97.969 21.675 97.652 22.913 C 97.581 23.19 97.324 24.092 97.081 24.917 C 96.568 26.657 96.496 26.909 95.935 28.917 C 95.704 29.742 95.318 31.092 95.077 31.917 C 94.556 33.701 94.468 34.013 93.999 35.75 C 93.801 36.483 93.579 37.233 93.507 37.417 C 93.388 37.717 93.206 38.348 92.643 40.417 C 92.543 40.783 92.401 41.271 92.327 41.5 C 92.254 41.729 92.067 42.367 91.913 42.917 C 91.759 43.467 91.57 44.104 91.493 44.333 C 91.417 44.563 91.306 44.994 91.247 45.292 C 91.091 46.084 90.933 45.962 90.601 44.792 C 90.438 44.219 90.243 43.563 90.168 43.333 C 90.016 42.871 89.584 41.401 89.335 40.5 C 89.246 40.179 89.014 39.392 88.819 38.75 C 88.625 38.108 88.406 37.358 88.334 37.083 C 88.262 36.808 88.075 36.133 87.92 35.583 C 87.765 35.033 87.574 34.358 87.497 34.083 C 87.42 33.808 87.234 33.171 87.083 32.667 C 86.933 32.162 86.74 31.506 86.655 31.208 C 86.57 30.91 86.43 30.423 86.345 30.125 C 86.26 29.827 86.067 29.171 85.917 28.667 C 85.766 28.162 85.58 27.525 85.502 27.25 C 85.425 26.975 85.162 26.075 84.919 25.25 C 84.676 24.425 84.403 23.45 84.312 23.083 C 83.978 21.729 83.874 21.667 81.941 21.667 C 80.995 21.667 80.172 21.717 80.111 21.778 M 83.643 22.055 C 83.849 22.303 84.004 22.806 85.929 29.5 C 86.047 29.912 86.289 30.738 86.465 31.333 C 86.642 31.929 86.915 32.867 87.074 33.417 C 87.232 33.967 87.495 34.867 87.658 35.417 C 87.821 35.967 88.535 38.442 89.244 40.917 C 90.65 45.824 90.815 46.333 90.994 46.333 C 91.133 46.333 91.217 46.07 92.335 42.167 C 92.794 40.563 93.323 38.725 93.511 38.083 C 93.838 36.968 93.95 36.581 94.552 34.5 C 94.885 33.351 97.107 25.621 97.331 24.833 C 98.226 21.69 98.08 21.839 100.26 21.836 C 102.176 21.832 102.2 21.872 103.665 27.417 C 103.737 27.692 104.216 29.379 104.729 31.167 C 105.633 34.313 105.839 35.026 106.514 37.333 C 106.881 38.591 108.413 43.938 108.686 44.917 C 109.201 46.765 109.291 46.793 109.737 45.25 C 109.896 44.7 110.088 44.063 110.163 43.833 C 110.238 43.604 110.426 42.967 110.581 42.417 C 110.736 41.867 111.006 40.929 111.181 40.333 C 111.356 39.737 112.324 36.4 113.333 32.917 C 115.269 26.236 115.585 25.153 116.166 23.208 L 116.528 22 L 118.264 22 C 119.904 22 120 22.019 120 22.342 C 120 22.627 118.086 29.378 116.411 35 C 116.179 35.779 115.908 36.717 115.809 37.083 C 115.709 37.45 115.568 37.938 115.494 38.167 C 115.42 38.396 115.231 39.033 115.073 39.583 C 114.915 40.133 114.642 41.071 114.465 41.667 C 114.289 42.262 114.047 43.087 113.929 43.5 C 113.81 43.913 113.583 44.7 113.425 45.25 C 113.266 45.8 112.986 46.775 112.801 47.417 C 112.616 48.058 112.404 48.771 112.329 49 C 112.255 49.229 112.065 49.867 111.908 50.417 C 111.751 50.967 111.528 51.717 111.412 52.083 L 111.201 52.75 L 109.375 52.797 C 107.156 52.854 107.436 53.173 106.337 49.333 C 105.851 47.637 105.31 45.762 105.133 45.167 C 104.956 44.571 104.714 43.746 104.595 43.333 C 103.999 41.259 103.777 40.493 103.483 39.5 C 103.054 38.046 101.664 33.209 101.496 32.583 C 100.295 28.106 100.154 27.86 99.688 29.438 C 99.502 30.068 98.783 32.533 98.09 34.917 C 97.397 37.3 96.67 39.775 96.473 40.417 C 96.276 41.058 96.059 41.808 95.991 42.083 C 95.922 42.358 95.633 43.371 95.348 44.333 C 94.786 46.228 94.361 47.681 93.908 49.25 C 93.75 49.8 93.436 50.834 93.212 51.547 L 92.805 52.844 L 90.962 52.797 C 88.914 52.745 89.016 52.805 88.618 51.417 C 88.185 49.904 87.808 48.598 87.486 47.5 C 87.312 46.904 86.793 45.104 86.333 43.5 C 85.873 41.896 85.354 40.096 85.18 39.5 C 85.006 38.904 84.734 37.967 84.575 37.417 C 84.122 35.844 83.879 35.005 83.511 33.75 C 83.185 32.636 81.644 27.282 81.449 26.583 C 81.398 26.4 81.157 25.575 80.914 24.75 C 80.299 22.662 80.174 22.122 80.27 21.968 C 80.417 21.73 83.438 21.808 83.643 22.055 M 221.417 22.079 C 215.105 23.183 209.339 29.103 208.915 34.917 L 208.843 35.917 L 209.058 34.833 C 211.384 23.156 224.125 18.257 233.945 25.264 C 235.704 26.52 235.733 26.641 234.564 27.902 C 233.275 29.294 233.142 29.334 232.317 28.589 C 228.498 25.138 222.832 24.534 218.492 27.113 C 215.702 28.771 213.617 31.465 212.645 34.667 C 212.168 36.234 212.569 42.153 213.114 41.608 C 213.16 41.562 213.069 41.088 212.913 40.554 C 212.366 38.693 212.65 34.059 213.36 33.258 C 213.437 33.171 213.5 32.994 213.5 32.864 C 213.5 32.455 214.936 30.459 216.031 29.348 C 218.751 26.588 222.112 25.371 225.784 25.819 C 228.379 26.135 229.757 26.811 232.768 29.243 L 233.172 29.569 L 234.42 28.331 C 235.105 27.649 235.667 26.957 235.667 26.793 C 235.667 25.896 231.038 22.903 228.917 22.428 C 226.116 21.801 223.662 21.687 221.417 22.079 M 200.166 38.167 L 200.083 52.917 L 198.514 52.965 C 196.722 53.02 196.673 52.989 196.669 51.792 C 196.666 50.851 196.521 50.814 195.668 51.542 C 195.099 52.027 194.001 52.644 192.833 53.136 C 192.507 53.273 192.484 53.313 192.727 53.322 C 193.114 53.336 194.996 52.329 195.856 51.649 L 196.5 51.139 L 196.5 52.051 C 196.5 52.73 196.568 52.99 196.764 53.066 C 197.287 53.266 200.173 53.178 200.257 52.958 C 200.3 52.844 200.316 46.15 200.293 38.083 L 200.249 23.417 L 200.166 38.167 M 157.417 30.092 C 156.775 30.209 155.976 30.422 155.642 30.565 C 155.107 30.793 155.008 30.794 154.829 30.579 C 154.449 30.121 151.197 30.233 151.082 30.708 C 151.032 30.915 151.012 36.033 151.037 42.083 L 151.083 53.083 L 152.917 53.083 L 154.75 53.083 L 154.833 44.917 C 154.909 37.508 154.944 36.696 155.214 36.167 C 156.935 32.793 161.488 33.37 162.315 37.067 L 162.524 38 L 164.342 38 L 166.16 38 L 166.274 37.548 C 166.932 34.925 163.507 30.727 160.25 30.164 C 159.7 30.069 159.1 29.966 158.917 29.934 C 158.733 29.903 158.058 29.974 157.417 30.092 M 160.2 30.353 C 163.291 31.003 166 34.02 166 36.809 L 166 37.833 L 164.36 37.833 L 162.72 37.833 L 162.519 36.958 C 161.64 33.119 156.958 32.541 154.972 36.027 C 154.799 36.331 154.732 38.223 154.667 44.667 L 154.583 52.917 L 152.917 52.917 L 151.25 52.917 L 151.25 41.75 L 151.25 30.583 L 152.828 30.535 C 154.264 30.491 154.429 30.518 154.668 30.835 L 154.931 31.184 L 155.754 30.831 C 157.318 30.161 158.623 30.021 160.2 30.353 M 280.56 30.564 C 277.603 31.663 274.73 35.044 273.849 38.458 C 273.749 38.848 273.592 39.457 273.5 39.811 C 273.408 40.165 273.333 41.15 273.333 42 C 273.333 42.85 273.408 43.835 273.5 44.189 C 273.592 44.543 273.747 45.152 273.845 45.542 C 275.786 53.259 284.207 56.337 289.593 51.299 C 290.976 50.006 291.647 48.996 292.465 46.975 C 292.699 46.399 292.441 46.038 291.571 45.725 C 289.048 44.816 289.205 44.799 288.589 46.056 C 286.164 51.014 280.545 51.106 278.267 46.225 C 278.017 45.689 277.742 45.12 277.656 44.961 C 277.57 44.801 277.495 44.501 277.488 44.294 C 277.482 44.086 277.406 43.767 277.319 43.583 C 277.205 43.343 277.187 43.456 277.254 43.991 C 277.389 45.063 278.492 47.283 279.374 48.256 C 282.211 51.389 286.747 50.434 288.71 46.289 C 289.276 45.093 289.189 45.116 290.832 45.729 C 292.537 46.366 292.561 46.431 291.727 48.119 C 288.391 54.87 279.687 55.413 275.764 49.114 C 272.766 44.3 272.76 39.691 275.746 34.918 C 279.486 28.942 287.264 28.854 290.986 34.747 C 291.881 36.165 291.877 36.182 290.368 36.89 C 288.758 37.646 288.846 37.652 288.276 36.749 C 286.71 34.271 283.588 33.163 281.25 34.256 C 279.396 35.123 277.12 38.596 277.182 40.464 C 277.195 40.874 277.211 40.861 277.347 40.333 C 279.079 33.633 284.865 31.855 288.172 37.009 C 288.807 37.998 288.639 37.986 290.4 37.165 C 292.103 36.371 292.167 36.179 291.233 34.7 C 288.856 30.941 284.298 29.175 280.56 30.564 M 189.167 33.815 C 186.834 34.31 184.336 37.326 184.088 39.944 L 184.012 40.75 L 184.188 40 C 184.766 37.536 186.376 35.232 188.083 34.424 C 189.031 33.975 191.524 33.8 191.75 34.167 C 191.807 34.258 191.961 34.333 192.093 34.333 C 193.71 34.333 195.994 38.025 196.268 41.083 C 197.117 50.556 186.482 53.134 184.259 43.995 C 184.12 43.426 184.03 43.246 184.018 43.516 C 183.991 44.157 184.575 45.722 185.265 46.858 C 188.991 52.992 196.422 49.7 196.415 41.919 C 196.409 36.782 193.024 32.996 189.167 33.815 M 208.727 37.5 C 208.727 38.371 208.755 38.727 208.789 38.292 C 208.824 37.856 208.824 37.144 208.789 36.708 C 208.755 36.273 208.727 36.629 208.727 37.5 M 208.857 39.833 C 208.842 40.435 209.344 42.566 209.55 42.773 C 209.614 42.837 209.667 42.987 209.667 43.107 C 209.667 45.235 213.96 49.884 217.642 51.744 C 220.154 53.012 225.046 53.65 227.445 53.021 C 227.796 52.929 228.571 52.728 229.167 52.575 C 231.553 51.961 235.667 49.285 235.667 48.346 C 235.667 47.959 233.476 45.833 233.079 45.835 C 232.898 45.836 232.487 46.081 232.167 46.381 C 231.449 47.051 230.189 47.851 229.083 48.341 C 228.625 48.544 228.12 48.775 227.961 48.855 C 227.801 48.935 227.501 49.001 227.294 49.003 C 227.086 49.004 226.804 49.078 226.667 49.167 C 226.27 49.423 226.78 49.38 227.845 49.067 C 229.116 48.694 230.778 47.792 231.979 46.824 C 233.241 45.807 233.057 45.787 234.387 47.097 C 235.685 48.376 235.683 48.371 234.898 49.112 C 230.786 52.989 223.153 54.171 218.049 51.72 C 213.09 49.34 210.001 45.355 209.027 40.083 C 208.891 39.351 208.871 39.32 208.857 39.833 M 183.885 41.917 C 183.886 42.467 183.917 42.672 183.954 42.372 C 183.991 42.072 183.99 41.622 183.952 41.372 C 183.914 41.122 183.884 41.367 183.885 41.917 M 270.539 41.667 C 270.539 41.987 270.573 42.119 270.615 41.958 C 270.657 41.798 270.657 41.535 270.615 41.375 C 270.573 41.215 270.539 41.346 270.539 41.667 M 277.05 42 C 277.05 42.504 277.081 42.71 277.119 42.458 C 277.158 42.206 277.158 41.794 277.119 41.542 C 277.081 41.29 277.05 41.496 277.05 42 M 213.167 41.958 C 213.174 43.108 216.183 46.592 218.221 47.809 C 219.697 48.691 223.194 49.907 222.167 49.182 C 222.029 49.085 221.747 49.004 221.539 49.003 C 221.332 49.001 221.032 48.933 220.873 48.85 C 220.714 48.768 220.246 48.564 219.833 48.397 C 217.43 47.424 214.768 44.947 213.719 42.708 C 213.336 41.892 213.166 41.66 213.167 41.958 M 223.357 49.512 C 223.875 49.588 224.775 49.588 225.357 49.513 C 226.309 49.39 226.213 49.376 224.417 49.375 C 222.715 49.374 222.557 49.395 223.357 49.512 M 132.961 54.287 C 133.261 54.325 133.711 54.324 133.961 54.286 C 134.212 54.248 133.967 54.217 133.417 54.218 C 132.867 54.219 132.662 54.25 132.961 54.287 M 258.042 54.286 C 258.294 54.324 258.706 54.324 258.958 54.286 C 259.21 54.248 259.004 54.217 258.5 54.217 C 257.996 54.217 257.79 54.248 258.042 54.286" stroke-linecap="round" />
</g>
</svg>